<svg xmlns="http://www.w3.org/2000/svg" width="80" height="43" viewBox="0 0 144 43" fill="none">
    <path d="M134.465 19.1439H127.099V0H134.391C136.36 0 138.061 0.383253 139.494 1.14976C140.934 1.91003 142.043 3.00682 142.822 4.44012C143.607 5.8672 144 7.57781 144 9.57197C144 11.5661 143.611 13.2799 142.832 14.7132C142.053 16.1402 140.95 17.237 139.522 18.0035C138.095 18.7638 136.41 19.1439 134.465 19.1439ZM132.297 14.7319H134.278C135.226 14.7319 136.033 14.5792 136.7 14.2738C137.373 13.9685 137.884 13.4419 138.233 12.6941C138.588 11.9463 138.765 10.9056 138.765 9.57197C138.765 8.23838 138.585 7.19768 138.223 6.44987C137.868 5.70205 137.344 5.17547 136.653 4.87011C135.967 4.56476 135.126 4.41208 134.129 4.41208H132.297V14.7319Z" fill="white"/>
    <path d="M110.725 19.1439V0H124.522V4.18774H115.922V7.4781H123.812V11.6658H115.922V14.9562H124.485V19.1439H110.725Z" fill="white"/>
    <path d="M93.1419 19.1439V0H101.405C102.826 0 104.069 0.258618 105.135 0.775853C106.201 1.29309 107.029 2.03778 107.621 3.00994C108.213 3.98209 108.509 5.14743 108.509 6.50595C108.509 7.87694 108.204 9.03293 107.593 9.97392C106.989 10.9149 106.138 11.6253 105.041 12.1052C103.951 12.585 102.677 12.8249 101.218 12.8249H96.2827V8.78677H100.171C100.782 8.78677 101.302 8.71199 101.732 8.56243C102.169 8.40664 102.502 8.16048 102.733 7.82397C102.969 7.48745 103.088 7.04811 103.088 6.50595C103.088 5.95756 102.969 5.51199 102.733 5.16924C102.502 4.82026 102.169 4.56476 101.732 4.40273C101.302 4.23448 100.782 4.15035 100.171 4.15035H98.3392V19.1439H93.1419ZM104.359 10.3572L109.145 19.1439H103.499L98.8253 10.3572H104.359Z" fill="white"/>
    <path d="M76.7672 19.1439V0H90.5643V4.18774H81.9645V7.4781H89.8539V11.6658H81.9645V14.9562H90.5269V19.1439H76.7672Z" fill="white"/>
    <path d="M59.4929 19.1439V0H67.7562C69.177 0 70.4202 0.280429 71.4859 0.841287C72.5515 1.40214 73.3803 2.19046 73.9723 3.20624C74.5644 4.22201 74.8604 5.40916 74.8604 6.76768C74.8604 8.13867 74.555 9.32582 73.9443 10.3291C73.3398 11.3324 72.4892 12.1052 71.3924 12.6473C70.3018 13.1895 69.0274 13.4606 67.5692 13.4606H62.6337V9.42241H66.5223C67.133 9.42241 67.6533 9.31647 68.0833 9.10459C68.5196 8.88648 68.853 8.57801 69.0835 8.17918C69.3203 7.78034 69.4387 7.30985 69.4387 6.76768C69.4387 6.21929 69.3203 5.75191 69.0835 5.36554C68.853 4.97294 68.5196 4.67382 68.0833 4.46817C67.6533 4.25629 67.133 4.15035 66.5223 4.15035H64.6901V19.1439H59.4929Z" fill="white"/>
    <path d="M34.9693 0H41.4378L45.8873 10.8433H46.1116L50.5611 0H57.0297V19.1439H51.9446V8.07635H51.795L47.5325 18.9944H44.4665L40.2039 8.00157H40.0544V19.1439H34.9693V0Z" fill="white"/>
    <path d="M18.5946 19.1439V0H32.3917V4.18774H23.7919V7.4781H31.6813V11.6658H23.7919V14.9562H32.3543V19.1439H18.5946Z" fill="white"/>
    <path d="M0 4.18774V0H16.6388V4.18774H10.8806V19.1439H5.75814V4.18774H0Z" fill="white"/>
    <path d="M126.714 42.2113V22.9424H131.914V30.4693H138.799V22.9424H144V42.2113H138.799V34.6844H131.914V42.2113H126.714Z" fill="white"/>
    <path d="M108.106 27.1575V22.9424H124.756V27.1575H118.994V42.2113H113.868V27.1575H108.106Z" fill="white"/>
    <path d="M101.572 29.3034C101.491 28.9709 101.363 28.6793 101.188 28.4284C101.014 28.1712 100.795 27.9548 100.534 27.7792C100.278 27.5973 99.9785 27.4624 99.6355 27.3746C99.2988 27.2805 98.9277 27.2335 98.5224 27.2335C97.6493 27.2335 96.9041 27.4436 96.2867 27.8638C95.6756 28.2841 95.2079 28.8894 94.8836 29.6797C94.5656 30.47 94.4066 31.4235 94.4066 32.5399C94.4066 33.669 94.5593 34.6349 94.8649 35.4378C95.1705 36.2407 95.6257 36.8554 96.2306 37.2819C96.8355 37.7084 97.587 37.9217 98.485 37.9217C99.2769 37.9217 99.9348 37.8056 100.459 37.5736C100.989 37.3415 101.385 37.0122 101.647 36.5857C101.909 36.1591 102.04 35.6573 102.04 35.0803L102.938 35.1744H98.5598V31.4485H107.053V34.1206C107.053 35.8769 106.682 37.3791 105.94 38.6273C105.204 39.8693 104.188 40.8227 102.891 41.4876C101.6 42.1462 100.119 42.4755 98.4475 42.4755C96.583 42.4755 94.946 42.0772 93.5366 41.2806C92.1273 40.484 91.0266 39.3487 90.2346 37.8746C89.4489 36.4006 89.056 34.6475 89.056 32.6152C89.056 31.022 89.2961 29.6107 89.7763 28.3813C90.2627 27.1519 90.9362 26.1138 91.7968 25.2671C92.6573 24.414 93.652 23.7711 94.7807 23.3383C95.9095 22.8992 97.1193 22.6797 98.4101 22.6797C99.5451 22.6797 100.599 22.8428 101.572 23.1689C102.551 23.4888 103.415 23.9467 104.163 24.5426C104.917 25.1322 105.526 25.8316 105.987 26.6407C106.448 27.4499 106.729 28.3374 106.829 29.3034H101.572Z" fill="white"/>
    <path d="M86.6708 22.9424V42.2113H82.3305L75.4085 32.0876H75.2962V42.2113H70.0953V22.9424H74.5105L81.3203 33.0284H81.47V22.9424H86.6708Z" fill="white"/>
    <path d="M53.7093 42.2113V22.9424H67.516V27.1575H58.9102V30.4693H66.8051V34.6844H58.9102V37.9962H67.4786V42.2113H53.7093Z" fill="white"/>
    <path d="M36.1143 42.2113V22.9424H44.3833C45.8051 22.9424 47.0492 23.2027 48.1156 23.7233C49.182 24.2439 50.0114 24.9935 50.6038 25.972C51.1962 26.9505 51.4924 28.1234 51.4924 29.4908C51.4924 30.8707 51.1869 32.0343 50.5757 32.9814C49.9708 33.9285 49.1196 34.6436 48.0221 35.1266C46.9307 35.6096 45.6555 35.851 44.1962 35.851H39.2572V31.7865H43.1486C43.7597 31.7865 44.2804 31.7112 44.7107 31.5607C45.1472 31.4039 45.4809 31.1561 45.7116 30.8174C45.9486 30.4787 46.0671 30.0365 46.0671 29.4908C46.0671 28.9388 45.9486 28.4903 45.7116 28.1454C45.4809 27.7941 45.1472 27.5369 44.7107 27.3739C44.2804 27.2045 43.7597 27.1198 43.1486 27.1198H41.3152V42.2113H36.1143ZM47.3392 33.3672L52.1285 42.2113H46.4786L41.8016 33.3672H47.3392Z" fill="white"/>
    <path d="M17.5062 27.1575V22.9424H34.1565V27.1575H28.3944V42.2113H23.2683V27.1575H17.5062Z" fill="white"/>
    <path d="M10.8134 28.9647C10.7635 28.3374 10.5296 27.8482 10.1118 27.4969C9.70023 27.1457 9.0735 26.97 8.23163 26.97C7.69533 26.97 7.25568 27.0359 6.9127 27.1676C6.57595 27.2931 6.32651 27.4655 6.16437 27.6851C6.00223 27.9046 5.91804 28.1555 5.91181 28.4378C5.89934 28.6699 5.93987 28.88 6.03341 29.0682C6.13319 29.2501 6.28909 29.4163 6.50112 29.5668C6.71314 29.7111 6.98441 29.8428 7.31493 29.962C7.64544 30.0812 8.03831 30.1878 8.49355 30.2819L10.065 30.6206C11.1252 30.8464 12.0325 31.1443 12.7871 31.5144C13.5417 31.8845 14.159 32.3204 14.6392 32.8222C15.1194 33.3177 15.4717 33.876 15.6962 34.4969C15.927 35.1179 16.0454 35.7953 16.0517 36.5292C16.0454 37.7962 15.7305 38.8688 15.1069 39.747C14.4833 40.6251 13.5915 41.2931 12.4316 41.751C11.278 42.2089 9.89043 42.4378 8.26905 42.4378C6.60401 42.4378 5.15101 42.1901 3.91002 41.6946C2.67528 41.199 1.71492 40.4369 1.02895 39.4083C0.349221 38.3733 0.00623608 37.0498 0 35.4378H4.93898C4.97016 36.0274 5.11671 36.5229 5.37862 36.9244C5.64054 37.3258 6.00847 37.63 6.48241 37.837C6.96259 38.044 7.53319 38.1475 8.19421 38.1475C8.74923 38.1475 9.21381 38.0785 9.58798 37.9405C9.96214 37.8025 10.2459 37.6112 10.4392 37.3666C10.6325 37.122 10.7323 36.8428 10.7385 36.5292C10.7323 36.2344 10.6356 35.9772 10.4486 35.7577C10.2677 35.5319 9.96838 35.3312 9.55056 35.1555C9.13274 34.9736 8.56838 34.8043 7.85747 34.6475L5.94922 34.2335C4.25301 33.8634 2.91537 33.2456 1.9363 32.38C0.963475 31.5081 0.480178 30.3195 0.486415 28.8141C0.480178 27.591 0.804455 26.5215 1.45924 25.6058C2.12027 24.6837 3.03385 23.9655 4.2 23.4512C5.37239 22.9369 6.71626 22.6797 8.23163 22.6797C9.77818 22.6797 11.1158 22.94 12.2446 23.4606C13.3733 23.9812 14.2432 24.7151 14.8544 25.6622C15.4717 26.6031 15.7835 27.7039 15.7898 28.9647H10.8134Z" fill="white"/>
</svg>